<?xml version="1.0" encoding="UTF-8"?>
<svg version="1.1" xmlns="http://www.w3.org/2000/svg" width="512" height="512">
<path d="M0 0 C1.65274669 -0.00644261 3.30549228 -0.013172 4.95823669 -0.02017212 C8.41529985 -0.03210352 11.87226343 -0.03585749 15.3293457 -0.03466797 C19.71426417 -0.03446562 24.0985284 -0.06169849 28.48329258 -0.09621239 C31.89728095 -0.11868659 35.31111735 -0.12249922 38.72517204 -0.12144852 C40.33917418 -0.12377644 41.95318238 -0.1324371 43.56711006 -0.14811325 C57.41823738 -0.27000367 70.34099727 1.4154498 82.84765625 7.89453125 C85.21698494 8.60514974 85.21698494 8.60514974 87.74609375 6.96484375 C92.08905298 4.82921404 95.65656702 4.79934595 100.43359375 4.8359375 C101.3162793 4.84238281 102.19896484 4.84882812 103.10839844 4.85546875 C128.72778476 5.55762286 152.99188471 22.47499535 170.6328125 39.875 C181.95226512 51.98239414 190.75185063 66.74217593 190.3046875 83.734375 C189.14186494 96.02707062 183.54998062 104.89986577 175.18359375 113.5859375 C163.36157603 125.91591827 157.48644887 139.29139667 157.8203125 156.546875 C158.11751414 161.27286836 158.80889736 165.8665012 159.6015625 170.53125 C160.65658275 177.0056478 160.328132 181.55975325 157.05859375 187.3359375 C154.0193055 189.91272537 152.17032783 191.23926497 148.18359375 191.5859375 C147.48234375 191.5034375 146.78109375 191.4209375 146.05859375 191.3359375 C145.94644531 192.06167969 145.83429688 192.78742188 145.71875 193.53515625 C143.20514639 204.19937987 134.30954222 211.84385673 126.05859375 218.3359375 C126.29457275 218.96234131 126.53055176 219.58874512 126.77368164 220.23413086 C135.75119862 244.21695729 142.44191667 268.1466994 147.05859375 293.3359375 C153.1888162 287.30697905 158.78305121 281.1337759 164.05859375 274.3359375 C164.67420166 273.54292236 164.67420166 273.54292236 165.30224609 272.73388672 C182.43043247 250.42173635 193.3106709 222.57166626 189.78320312 194.11425781 C188.87490174 188.02438916 187.68404055 181.99330848 186.2734375 176 C184.73637096 169.13382251 184.73637096 169.13382251 186.37109375 165.0859375 C189.54559715 163.01881901 191.5978268 162.84646612 195.30859375 163.51171875 C209.58979192 167.79202104 220.88594833 176.68871661 228.5859375 189.44921875 C230.15903631 192.53282623 231.31843632 195.6453046 232.49609375 198.8984375 C233.83931413 202.8774173 233.83931413 202.8774173 237.00390625 205.21875 C238.40012974 205.41968253 239.79870899 205.60495512 241.19921875 205.7734375 C243.05859375 206.3359375 243.05859375 206.3359375 244.35546875 207.8984375 C245.52398993 210.34334335 246.31517215 212.72857477 247.05859375 215.3359375 C247.35636719 216.35429687 247.65414063 217.37265625 247.9609375 218.421875 C253.76973552 242.24597747 250.55230507 267.77840071 237.85449219 288.79199219 C236.28787787 291.32756091 234.68289537 293.83701194 233.05859375 296.3359375 C233.69796875 296.6453125 234.33734375 296.9546875 234.99609375 297.2734375 C237.05859375 298.3359375 237.05859375 298.3359375 238.05859375 299.3359375 C238.67741774 302.50741045 238.58826864 304.53819544 236.77734375 307.265625 C234.95677856 309.39237616 233.05334956 311.37187024 231.05859375 313.3359375 C230.2078125 314.2021875 230.2078125 314.2021875 229.33984375 315.0859375 C220.31012493 323.64040796 208.45347638 329.62163055 197.05859375 334.3359375 C197.34734375 335.20089844 197.63609375 336.06585938 197.93359375 336.95703125 C209.44593113 376.01103688 192.29135521 415.73215129 176.53710938 451.02050781 C174.58126513 455.40630121 172.66289474 459.8079887 170.74609375 464.2109375 C169.85169772 466.25323913 168.95532179 468.29465841 168.05859375 470.3359375 C168.64125 470.35011719 169.22390625 470.36429687 169.82421875 470.37890625 C179.23088969 470.92614969 187.98719654 473.98002736 195.05859375 480.3359375 C196.60546875 482.3359375 196.60546875 482.3359375 197.80859375 484.3359375 C198.2159375 484.9959375 198.62328125 485.6559375 199.04296875 486.3359375 C201.20648036 490.59639113 201.2207646 494.52675445 201.24609375 499.2734375 C201.26027344 500.47871094 201.27445312 501.68398438 201.2890625 502.92578125 C201.05363849 506.4092585 200.63042374 509.76410751 198.05859375 512.3359375 C196.26272578 512.44107173 194.46269964 512.47559877 192.66377258 512.48310852 C191.49308731 512.49026382 190.32240204 512.49741913 189.11624146 512.50479126 C187.17211868 512.50882462 187.17211868 512.50882462 185.1887207 512.51293945 C183.81901373 512.51920146 182.44930848 512.52584803 181.0796051 512.53285217 C177.34798144 512.55029029 173.61637062 512.56082228 169.88471627 512.5690577 C167.55376413 512.57420354 165.222816 512.58027956 162.89186668 512.58656883 C155.60043137 512.60563161 148.30900623 512.61985854 141.01755077 512.6281808 C132.59845658 512.6379482 124.17962566 512.66424993 115.76062423 512.70468169 C109.25610325 512.73484757 102.75165768 512.74965025 96.24706811 512.75296181 C92.36120612 512.75531246 88.47562502 512.76427371 84.58983803 512.78942299 C80.93147134 512.81271623 77.27357019 512.81693223 73.61514854 512.80666161 C71.63625478 512.80593067 69.65738459 512.82501485 67.67858887 512.84472656 C56.88011522 512.78143857 56.88011522 512.78143857 52.05859375 508.3359375 C51.51855713 507.75094482 50.97852051 507.16595215 50.42211914 506.56323242 C49.97215576 506.1582251 49.52219238 505.75321777 49.05859375 505.3359375 C46.09699555 505.61785012 43.39451228 506.04930055 40.49609375 506.6484375 C26.42114559 509.1809634 13.31488211 509.20921663 -0.66210938 505.96435547 C-2.84727229 505.52064129 -4.71517134 505.1902852 -6.94140625 505.3359375 C-9.80113796 507.53930602 -9.80113796 507.53930602 -11.94140625 510.3359375 C-15.2144111 512.46241294 -17.88033231 512.58335878 -21.73736572 512.57644653 C-22.92084595 512.57919586 -24.10432617 512.58194519 -25.32366943 512.58477783 C-27.26575287 512.573992 -27.26575287 512.573992 -29.24707031 512.56298828 C-30.62695304 512.56242401 -32.00683637 512.56274103 -33.38671875 512.56387329 C-37.13021678 512.5644472 -40.87358669 512.5526867 -44.61705494 512.53872538 C-48.53015812 512.52622443 -52.44326421 512.52504802 -56.35638428 512.52267456 C-63.76529976 512.51645792 -71.17415623 512.50004462 -78.58304572 512.47997558 C-87.01827803 512.4576223 -95.45351316 512.44662459 -103.88876772 512.43658471 C-121.23968136 512.41567855 -138.59053757 512.380499 -155.94140625 512.3359375 C-159.63755884 504.01668405 -160.46744193 496.75653839 -157.37890625 488.0234375 C-153.96496147 480.58676757 -148.82780398 476.11900275 -141.28125 473.11328125 C-136.1424453 471.40606566 -131.36474643 470.3359375 -125.94140625 470.3359375 C-126.17420288 469.8004126 -126.40699951 469.2648877 -126.64685059 468.71313477 C-129.12571043 463.00521397 -131.5900029 457.29114868 -134.046875 451.57373047 C-134.95871163 449.45664758 -135.87393804 447.34102063 -136.79296875 445.22705078 C-150.54868914 413.56777765 -167.61471218 373.31197068 -155.94140625 338.3359375 C-150.7027594 326.06480412 -143.11562407 317.88884286 -130.94140625 312.3359375 C-122.55234129 309.37970775 -114.83965977 308.08244205 -105.94140625 308.3359375 C-105.88194824 307.75030029 -105.82249023 307.16466309 -105.76123047 306.5612793 C-102.53046066 275.77971832 -95.46610949 245.69734757 -82.94140625 217.3359375 C-83.52148438 217.07039062 -84.1015625 216.80484375 -84.69921875 216.53125 C-93.34524525 211.92204423 -100.20008749 203.27353232 -103.94140625 194.3359375 C-103.94140625 193.3459375 -103.94140625 192.3559375 -103.94140625 191.3359375 C-104.99328125 191.2740625 -106.04515625 191.2121875 -107.12890625 191.1484375 C-111.60477881 190.19456302 -113.06423492 188.80546763 -115.94140625 185.3359375 C-117.45855435 182.30164129 -117.07301712 179.45748018 -117.06640625 176.0859375 C-117.06898437 174.78140625 -117.0715625 173.476875 -117.07421875 172.1328125 C-116.94140625 168.3359375 -116.94140625 168.3359375 -116.453125 165.421875 C-113.915579 150.11911667 -116.0896091 136.16873387 -124.75 123.1875 C-127.77720562 119.24835544 -131.16007009 115.70693225 -134.58544922 112.11499023 C-143.21871876 102.94915776 -147.77832333 93.03828485 -147.94140625 80.3359375 C-146.40169357 61.83494545 -136.05788704 46.31808352 -122.453125 34.1015625 C-104.27408373 18.84274349 -82.97960571 5.23710282 -58.56640625 5.0859375 C-57.74140625 5.0653125 -56.91640625 5.0446875 -56.06640625 5.0234375 C-51.80379303 4.99637329 -49.27677619 5.17950412 -45.33203125 7.01953125 C-41.48429776 8.51340934 -39.83822066 8.11337707 -36.078125 6.56445312 C-35.08232422 6.11102539 -35.08232422 6.11102539 -34.06640625 5.6484375 C-22.66139346 0.73016578 -12.25626577 0.01129957 0 0 Z " fill="#030201" transform="translate(233.94140625,-0.3359375)"/>
<path d="M0 0 C2.56416215 3.16266223 5.02756463 6.38187984 7.44824219 9.65527344 C21.79261649 28.83762425 42.88819671 40.45432126 65.8815918 46.13549805 C71.17589129 47.53137946 74.44055139 49.3980179 78.31640625 53.3515625 C83.5813784 58.50659323 89.79453232 59.40060806 96.9375 59.5 C105.70888518 59.37817521 112.38539195 57.74835873 118.6875 51.5 C122.69273826 47.71191322 126.72833805 46.72115278 132.02050781 45.47729492 C156.23408672 39.75706 178.27043993 25.88226685 192 5 C193.01268806 3.34101215 194.01705797 1.67678345 195 0 C197.72903227 2.3577877 198.72505834 4.43858558 199.83203125 7.84765625 C200.31313354 9.32407593 200.31313354 9.32407593 200.80395508 10.83032227 C201.30318481 12.43025024 201.30318481 12.43025024 201.8125 14.0625 C202.33589966 15.72913696 202.33589966 15.72913696 202.86987305 17.42944336 C215.39357413 58.21380813 220.60080329 102.74717861 213 145 C212.82307617 145.98548828 212.64615234 146.97097656 212.46386719 147.98632812 C207.31484593 175.85685076 198.49914292 201.99628158 184.71484375 226.83203125 C182.14632185 231.57706829 181.31883237 235.65072427 182 241 C184.14762508 247.20199087 187.91858991 251.34108471 192.6875 255.6875 C198.60762813 261.09339333 198.60762813 261.09339333 200.14453125 264.64453125 C200 267 200 267 198.34913635 269.11585999 C195.43011882 271.45707689 193.97633267 271.50110056 190.26928711 271.50170898 C189.1180687 271.51108994 187.96685028 271.52047089 186.78074646 271.53013611 C185.54212357 271.51890213 184.30350067 271.50766815 183.02734375 271.49609375 C181.11545006 271.4982766 181.11545006 271.4982766 179.16493225 271.50050354 C176.47032762 271.49884329 173.77713407 271.48935237 171.08276367 271.46655273 C167.63021256 271.43813877 164.17854512 271.44091431 160.72592831 271.45364285 C157.43050973 271.46226995 154.13523461 271.44715642 150.83984375 271.43359375 C148.97887306 271.43799721 148.97887306 271.43799721 147.08030701 271.44248962 C145.93224075 271.42980545 144.7841745 271.41712128 143.60131836 271.40405273 C142.58968124 271.39864975 141.57804413 271.39324677 140.53575134 271.38768005 C138 271 138 271 136.1499176 269.9122467 C134.30897947 266.85087268 134.65481457 264.51303088 135 261 C135.66376964 259.15404751 136.33442004 257.30872427 137.09561443 255.5007658 C142.43724443 242.53524158 141.86772309 229.14838103 141.77302146 215.35223746 C141.75380289 211.79762349 141.76530942 208.24307283 141.77192688 204.68843079 C141.77822302 198.73017303 141.76022249 192.77237095 141.72729492 186.81420898 C141.6897303 179.96101995 141.69163018 173.10868968 141.7143361 166.25545472 C141.73539334 159.60892077 141.72795553 152.96269931 141.70801735 146.31617165 C141.70010601 143.51061691 141.7019312 140.70533193 141.71204185 137.899786 C141.72470027 133.97412409 141.69563906 130.04933568 141.6628418 126.1237793 C141.67139191 124.98320068 141.67994202 123.84262207 141.68875122 122.66748047 C141.50666254 109.94940928 137.03225097 99.0158882 128 90 C117.7727722 81.16565957 105.70070937 79.04657275 92.57421875 79.55078125 C81.17774143 80.3891374 72.00245057 86.60150047 64.3125 94.6875 C58.14163953 102.03040033 54.90494748 110.73249494 54.84609985 120.27705383 C54.83749939 121.32098801 54.82889893 122.36492218 54.82003784 123.44049072 C54.81577789 124.57557068 54.81151794 125.71065063 54.80712891 126.88012695 C54.79895142 128.08410629 54.79077393 129.28808563 54.78234863 130.52854919 C54.75752982 134.51512323 54.74082011 138.50165936 54.7265625 142.48828125 C54.72119743 143.86762179 54.71581991 145.24696228 54.71043015 146.62630272 C54.68880561 152.37310663 54.67007733 158.11990787 54.65880775 163.86674213 C54.64262485 172.06174875 54.60958138 180.25627708 54.55240691 188.45110351 C54.51345937 194.23399646 54.49414548 200.01676291 54.48888719 205.79978341 C54.48526462 209.24222696 54.47358169 212.68415949 54.44078445 216.12645912 C54.3209694 230.60731439 54.29763408 243.50871286 60 257 C60.92556607 259.77669822 61.19295491 261.67696895 61.25 264.5625 C61.27578125 265.34753906 61.3015625 266.13257813 61.328125 266.94140625 C61.21984375 267.62074219 61.1115625 268.30007813 61 269 C57.620127 271.25324867 56.45086361 271.25629866 52.49047852 271.2746582 C51.36243301 271.28419022 50.23438751 271.29372223 49.07215881 271.30354309 C47.24399879 271.30217598 47.24399879 271.30217598 45.37890625 271.30078125 C44.12746323 271.30506638 42.8760202 271.3093515 41.58665466 271.31376648 C38.93775427 271.31951448 36.28924295 271.32093986 33.64038086 271.31567383 C30.2496151 271.3098806 26.85939585 271.3268072 23.46872044 271.3500185 C20.2304531 271.3683127 16.99221597 271.36457023 13.75390625 271.36328125 C12.53715714 271.372491 11.32040802 271.38170074 10.06678772 271.39118958 C8.93559006 271.38496078 7.8043924 271.37873199 6.63891602 271.37231445 C5.6442482 271.37294388 4.64958038 271.3735733 3.62477112 271.3742218 C0.56380867 270.93781084 -0.81150619 270.16057869 -3 268 C-3.51171875 265.09765625 -3.51171875 265.09765625 -3 262 C-1.20703125 259.62109375 -1.20703125 259.62109375 1.1875 257.4375 C2.00863281 256.66664063 2.82976562 255.89578125 3.67578125 255.1015625 C4.82626953 254.06128906 4.82626953 254.06128906 6 253 C10.92530513 248.39591042 14.07995612 244.51753707 14.4765625 237.609375 C14.37907116 230.49508992 10.9058808 225.04317451 7.5625 218.9375 C6.25304758 216.45106188 4.96781864 213.9527601 3.69140625 211.44921875 C3.37168854 210.82250275 3.05197083 210.19578674 2.7225647 209.55007935 C-8.67273867 186.91233867 -14.99934189 161.08616191 -18 136 C-18.09498779 135.23872803 -18.18997559 134.47745605 -18.2878418 133.69311523 C-19.29870954 124.38504504 -19.20011914 115.03839315 -19.1875 105.6875 C-19.18656342 104.79472351 -19.18562683 103.90194702 -19.18466187 102.9821167 C-19.10636664 68.57001602 -15.25240823 31.34908302 0 0 Z " fill="#E9A14F" transform="translate(157,231)"/>
<path d="M0 0 C1.49630881 -0.00202818 2.99261664 -0.00494574 4.48892212 -0.00869751 C7.60696941 -0.01308872 10.72475669 -0.0067963 13.84277344 0.00732422 C17.79840081 0.0243844 21.75341579 0.01457477 25.70902061 -0.00339317 C28.79438716 -0.0143442 31.87961364 -0.010733 34.96498489 -0.0030098 C36.42152609 -0.0010373 37.87808088 -0.00336057 39.33460617 -0.01044846 C51.31871783 -0.05597938 62.97185755 1.08785773 74.0390625 6.0234375 C75.01488281 6.44882812 75.99070312 6.87421875 76.99609375 7.3125 C79.2265625 8.3984375 79.2265625 8.3984375 80.2265625 9.3984375 C80.49519709 10.81168904 80.74158957 12.22920103 80.9765625 13.6484375 C81.97991297 18.2916798 83.54555608 20.29003208 87.2265625 23.3984375 C98.23632282 33.34671868 100.25270431 43.93528884 101.0390625 58.3359375 C103.49190997 95.49516703 107.83415176 147.37853951 133.2265625 176.3984375 C133.8865625 176.7284375 134.5465625 177.0584375 135.2265625 177.3984375 C134.83727165 185.18425443 129.64787987 190.23209183 124.2890625 195.3984375 C119.17997065 199.80765375 109.22772188 207.3984375 102.2265625 207.3984375 C102.443125 206.81320313 102.6596875 206.22796875 102.8828125 205.625 C107.15965299 192.43807516 106.88240125 177.92461164 100.78515625 165.44921875 C94.42460173 153.68735806 86.26639807 147.10729019 74.94921875 140.58203125 C54.31711524 128.63324208 44.52827106 111.45353226 38.29296875 89.04296875 C38.04417969 88.08777344 37.79539062 87.13257812 37.5390625 86.1484375 C36.07420242 80.64688913 34.78077238 77.07111238 29.7265625 74.0859375 C24.66539956 71.79814244 19.68008298 71.57164037 14.2265625 72.3984375 C9.34061012 74.79699594 5.4425912 78.0764373 3.52734375 83.30859375 C3.0448929 84.93442521 2.5792759 86.56529091 2.125 88.19921875 C-4.52547044 111.88067654 -14.22136091 128.65750231 -35.7734375 141.3984375 C-49.16417364 149.48022017 -59.04788067 158.96249018 -64.1171875 174.2578125 C-66.44658409 185.40563902 -64.93423735 196.58022372 -61.7734375 207.3984375 C-75.12267027 203.31072865 -87.34122471 194.7142973 -94.2265625 182.44140625 C-94.7734375 180.3984375 -94.7734375 180.3984375 -94.08203125 178.375 C-92.70861936 176.30053308 -91.21010384 174.47026778 -89.5859375 172.5859375 C-66.23915182 142.66531568 -61.51921257 89.09491719 -60.12426758 52.29980469 C-59.6667392 41.81387875 -56.5783072 32.76354434 -48.7109375 25.4921875 C-47.32366273 24.32932483 -45.93317039 23.17028688 -44.5390625 22.015625 C-42.07357199 19.75741024 -40.90405297 17.52425675 -39.7734375 14.3984375 C-39.7734375 13.3878125 -39.7734375 12.3771875 -39.7734375 11.3359375 C-38.7734375 8.3984375 -38.7734375 8.3984375 -36.69140625 7.015625 C-24.78857576 1.32814948 -13.02930836 -0.06319945 0 0 Z " fill="#E8A04F" transform="translate(234.7734375,9.6015625)"/>
<path d="M0 0 C8.13360524 5.53742417 12.30601619 12.38716788 14.8125 21.8125 C15.33419367 25.91924554 15.37081375 29.96232165 15.34594727 34.09838867 C15.35887062 35.86178085 15.35887062 35.86178085 15.37205505 37.66079712 C15.39461423 41.51758333 15.38799199 45.37363667 15.37890625 49.23046875 C15.3815549 51.24958744 15.38674799 53.2686887 15.39220566 55.28780156 C15.4091432 61.6301824 15.40570471 67.97232235 15.38891602 74.31469727 C15.37203249 80.81377147 15.38779049 87.31217209 15.4201389 93.81117266 C15.44701934 99.42863304 15.45406066 105.04588616 15.44562382 110.66340429 C15.44074375 114.00182272 15.44480138 117.3395183 15.46341133 120.67793846 C15.53128422 135.06084355 15.14238175 147.36599233 9.8125 160.8125 C9.473965 162.07841476 9.13542999 163.34432953 8.78663635 164.64860535 C7.8125 167.8125 7.8125 167.8125 5.640625 169.1171875 C4.78984375 169.30539062 3.9390625 169.49359375 3.0625 169.6875 C1.80179687 169.99300781 1.80179687 169.99300781 0.515625 170.3046875 C-0.82242188 170.55605469 -0.82242188 170.55605469 -2.1875 170.8125 C-3.03570312 170.99554688 -3.88390625 171.17859375 -4.7578125 171.3671875 C-9.93949533 172.03998003 -15.09251066 172.03776071 -20.3125 172.0625 C-21.37726563 172.083125 -22.44203125 172.10375 -23.5390625 172.125 C-30.86763436 172.16057559 -38.38182829 171.77884093 -45.1875 168.8125 C-46.69877322 166.71757666 -47.14937268 165.08648653 -47.6063633 162.55162811 C-48.22016874 159.65851924 -49.16984277 157.07397295 -50.21566772 154.30944824 C-52.44191403 147.71126304 -52.76678049 141.71861375 -52.73681641 134.79882812 C-52.74703827 133.55814072 -52.75726013 132.31745331 -52.76779175 131.03916931 C-52.79064495 127.6731504 -52.79576185 124.30812429 -52.79066515 120.94209862 C-52.78850726 118.11677356 -52.79833863 115.29153677 -52.80787599 112.46623087 C-52.82996718 105.79463844 -52.83099625 99.12327134 -52.81884766 92.45166016 C-52.80676348 85.60079919 -52.83142279 78.75075924 -52.87398779 71.90003824 C-52.90936144 65.9862292 -52.92120083 60.0726799 -52.91471231 54.15876913 C-52.91110998 50.64053539 -52.91612107 47.12288809 -52.94414139 43.60475159 C-52.97425289 39.67823748 -52.95523645 35.75274917 -52.93212891 31.82617188 C-52.94741638 30.68192245 -52.96270386 29.53767303 -52.97845459 28.35874939 C-52.86100856 19.27877153 -50.30418273 11.47256249 -44.20896339 4.57280731 C-32.00365017 -7.14231316 -14.43020748 -8.2141181 0 0 Z " fill="#F3DACD" transform="translate(274.1875,325.1875)"/>
<path d="M0 0 C3.71292138 2.14778221 5.26495521 4.04212586 6.37109375 8.08984375 C6.74098196 9.70248953 7.0957632 11.31865483 7.4375 12.9375 C9.40820105 21.24569781 11.95862661 28.43537802 16 36 C16.69222656 37.31871094 16.69222656 37.31871094 17.3984375 38.6640625 C24.59669206 51.5095665 35.26899022 60.96297123 48.0625 68 C58.10944181 73.55598717 64.80687403 79.69697123 70 90 C70.3403125 90.62261719 70.680625 91.24523437 71.03125 91.88671875 C74.41743538 99.11371624 74.11773994 108.29538838 72.30859375 115.91015625 C68.37940258 126.54692062 61.9324262 132.72705021 52 138 C44.25302845 141.23964265 35.37404048 141.06603455 27.4375 138.5 C21.22206181 135.94228011 16.13496468 132.29044773 11 128 C10.11183594 127.33871094 9.22367187 126.67742187 8.30859375 125.99609375 C4.75405146 122.88656458 2.34981147 120.31354641 1.62207031 115.50048828 C1.2330356 109.31784553 1.5019327 103.16922335 2 97 C2.99580078 96.54560547 2.99580078 96.54560547 4.01171875 96.08203125 C9.18341604 93.62830626 13.23382994 91.4307883 17 87 C17.721875 86.195625 18.44375 85.39125 19.1875 84.5625 C23.33775261 78.69490148 24.07992063 72.02483027 23 65 C20.7984026 62.10316132 19.21405538 60.60702769 16 59 C13.21434013 58.87655036 10.45468587 58.81158348 7.66796875 58.796875 C6.83920731 58.79117493 6.01044586 58.78547485 5.15657043 58.77960205 C3.40053587 58.77014752 1.64448353 58.76361627 -0.11157227 58.75976562 C-2.79149596 58.75007594 -5.47064753 58.7190641 -8.15039062 58.6875 C-9.85676628 58.68096827 -11.56314742 58.67571846 -13.26953125 58.671875 C-14.46821587 58.6533548 -14.46821587 58.6533548 -15.69111633 58.63446045 C-20.28597298 58.65275015 -23.27608768 59.01457399 -27 62 C-30.14788949 66.72183423 -29.64714129 71.47864556 -29 77 C-26.66034589 84.29154339 -21.17694417 89.69367615 -15 94 C-12.69709714 95.11069747 -10.37983203 96.05617367 -8 97 C-6.10899136 115.82016429 -6.10899136 115.82016429 -10.0625 121.8203125 C-17.84074639 131.26377722 -29.82661915 139.07456435 -42.09765625 140.3125 C-52.33531843 140.69566396 -61.36421234 138.01666974 -69 131 C-75.62458949 124.00826459 -79.15324097 115.56522971 -79.4375 105.9375 C-78.95151105 94.15226806 -74.21065365 83.65657518 -65.625 75.4375 C-61.64443294 72.17715227 -57.21027631 69.77898741 -52.75 67.25 C-30.77778751 54.72817584 -19.52113513 35.94519603 -12.8125 12.1875 C-12.58667236 11.32125 -12.36084473 10.455 -12.12817383 9.5625 C-10.46655315 3.47936049 -10.46655315 3.47936049 -8.0078125 0.953125 C-5.10343567 -0.42560641 -3.17737062 -0.45391009 0 0 Z " fill="#F2D9CC" transform="translate(258,91)"/>
<path d="M0 0 C12.36653396 0.89269806 23.81531709 3.55872127 32.75 12.8125 C42.78810369 25.25974857 43.07536737 39.89101276 41.5390625 55.0859375 C38.67916418 79.19209078 29.41912596 101.0910918 19.90164185 123.22653198 C18.4229722 126.6667947 16.95205174 130.11035941 15.48016357 133.55352783 C14.39106281 136.08762537 13.2870637 138.61486453 12.18212891 141.14208984 C11.50363706 142.72207547 10.82571444 144.3023057 10.1484375 145.8828125 C9.83018005 146.59854431 9.51192261 147.31427612 9.184021 148.05169678 C7.25403521 152.60540652 6.67479796 156.05418541 7 161 C8.77503906 161.14695312 8.77503906 161.14695312 10.5859375 161.296875 C30.31231628 163.0935969 30.31231628 163.0935969 38 169.5 C42.39366817 174.99208521 42 176.04475915 42 184 C22.53 184 3.06 184 -17 184 C-17 180.7 -17 177.4 -17 174 C-20.298491 166.21556124 -26.4920373 161.16808803 -33 156 C-34.5116139 152.9767722 -34.52692569 150.26921375 -34 147 C-32.62985725 143.5186499 -30.8454213 140.28502369 -29.0625 137 C-19.08100058 117.76770886 -12.3364672 97.96913132 -7 77 C-6.67257812 75.74316406 -6.34515625 74.48632812 -6.0078125 73.19140625 C-0.31840757 49.2313865 -0.34984978 24.47595425 0 0 Z " fill="#E8A04F" transform="translate(383,318)"/>
<path d="M0 0 C1.07652832 0.01015137 2.15305664 0.02030273 3.26220703 0.03076172 C4.08060059 0.04381348 4.89899414 0.05686523 5.7421875 0.0703125 C5.75677002 0.85752686 5.77135254 1.64474121 5.78637695 2.45581055 C6.31268854 28.17440735 7.28626059 54.04363286 13.7421875 79.0703125 C13.95214355 79.89370117 14.16209961 80.71708984 14.37841797 81.56542969 C19.99433525 103.2052678 27.45635387 126.29971035 40.02734375 145.015625 C41.19802575 148.38053611 40.66966096 150.66711309 39.7421875 154.0703125 C37.84274572 156.16494232 36.16505409 157.76932603 33.9921875 159.5078125 C29.1715481 163.67076879 25.3801072 167.13499318 22.7421875 173.0703125 C22.7421875 176.3703125 22.7421875 179.6703125 22.7421875 183.0703125 C3.6021875 183.0703125 -15.5378125 183.0703125 -35.2578125 183.0703125 C-35.2578125 173.0703125 -35.2578125 173.0703125 -32.6328125 169.1328125 C-25.23875195 161.73875195 -16.53240092 161.90519035 -6.65625 161.44921875 C-3.13478653 161.31985783 -3.13478653 161.31985783 -0.2578125 159.0703125 C-0.78193203 152.72228094 -2.9325683 147.57119344 -5.484375 141.7734375 C-5.91027924 140.78518982 -6.33618347 139.79694214 -6.7749939 138.77874756 C-8.1362972 135.62241623 -9.50862081 132.47105148 -10.8828125 129.3203125 C-44.30956672 52.44719764 -44.30956672 52.44719764 -33.2578125 23.0703125 C-28.66701 11.80911321 -21.35678218 6.07517793 -10.3828125 1.1953125 C-6.87249135 -0.0022701 -3.69446655 -0.04523837 0 0 Z " fill="#E8A14F" transform="translate(121.2578125,318.9296875)"/>
<path d="M0 0 C24.79684169 5.28939011 49.31829846 21.37668049 63.4296875 42.4453125 C69.58425016 52.45795921 72.32498326 61.12868536 71 73 C68.51493794 81.28001528 63.41542079 87.01391452 57.54394531 93.06762695 C48.18293392 102.83544865 39.88462458 116.29212977 39.8671875 130.17578125 C39.86589844 131.16900391 39.86460937 132.16222656 39.86328125 133.18554688 C39.86908203 134.73338867 39.86908203 134.73338867 39.875 136.3125 C39.87113281 137.33279297 39.86726563 138.35308594 39.86328125 139.40429688 C39.87014742 144.71528065 40.16147173 149.74434248 41 155 C41.0616181 156.8115721 41.08732808 158.62505032 41.0625 160.4375 C41.05347656 161.30246094 41.04445313 162.16742188 41.03515625 163.05859375 C41.02355469 163.69925781 41.01195312 164.33992187 41 165 C38.9375 165.875 38.9375 165.875 36 166 C21.39537099 157.07494894 17.22153426 133.09966965 13.40234375 117.70703125 C7.85262112 94.3150293 3.73532567 70.4319808 2.80761719 46.38305664 C2.26665371 35.19548969 -0.59535574 24.6468177 -8 16 C-10.35188181 13.87522298 -12.73366725 11.85914806 -15.2421875 9.921875 C-17 8 -17 8 -17.4453125 5.453125 C-17 3 -17 3 -15.87890625 1.22265625 C-11.3715241 -1.71042195 -5.12882991 -0.71432171 0 0 Z " fill="#E8A04F" transform="translate(342,15)"/>
<path d="M0 0 C0.4453125 2.890625 0.4453125 2.890625 0 6 C-1.7578125 7.984375 -1.7578125 7.984375 -4.125 9.75 C-12.20992611 16.41116554 -16.84884315 25.79878328 -19 36 C-19.14442332 37.82039744 -19.24789232 39.64422836 -19.32421875 41.46875 C-24.14310408 137.42863414 -24.14310408 137.42863414 -49.5625 161.75 C-52.08517417 163.71207991 -52.62609797 164.01591072 -55.9375 163.875 C-56.618125 163.58625 -57.29875 163.2975 -58 163 C-58.19003178 158.15418963 -57.84518553 153.77946464 -57 149 C-54.08001394 130.71834816 -57.00242208 115.78357775 -67 100 C-70.45759619 95.31110156 -74.17064384 90.90046187 -78.2109375 86.703125 C-84.87608664 79.71586828 -88.06754858 72.78385356 -88.5625 63.0625 C-88.1034659 51.60145504 -81.99303936 42.67241842 -75 34 C-74.40574219 33.24074219 -73.81148437 32.48148438 -73.19921875 31.69921875 C-60.91090988 16.88483354 -42.93135758 6.446621 -25 0 C-23.99839844 -0.36738281 -23.99839844 -0.36738281 -22.9765625 -0.7421875 C-16.12083205 -2.85386819 -6.04285541 -4.02857028 0 0 Z " fill="#E8A04F" transform="translate(185,17)"/>
<path d="M0 0 C11.38579648 5.08294486 19.60962452 12.9752353 24.51171875 24.578125 C26.3701116 29.66873693 28.05736906 34.65508201 29 40 C31.97 40.33 34.94 40.66 38 41 C44.92359817 60.86771648 42.92639675 81.1042909 34.42578125 100.2109375 C31.55459796 105.82744398 28.20414465 111.18217238 24.31640625 116.15234375 C22.81222867 117.98014831 22.81222867 117.98014831 22.5625 120.5625 C22.77363603 123.16561065 22.77363603 123.16561065 25 124.8125 C25.99 125.4003125 25.99 125.4003125 27 126 C22.7839532 136.08282091 9.38058852 141.55494988 0 146 C-2.99363615 147.18086703 -5.89859561 148.12943035 -9 149 C-9.52207031 148.48050781 -10.04414063 147.96101562 -10.58203125 147.42578125 C-21.64689175 136.94226194 -35.05616143 133.24531988 -50 132 C-48.50174324 128.34851085 -46.42568867 126.40958256 -43.4375 123.875 C-20.60531733 103.72510813 0.01667648 71.97565698 2 41 C2.54666506 27.21134996 2.27423312 13.62509304 0 0 Z " fill="#E7A04F" transform="translate(432,176)"/>
<path d="M0 0 C3.28135413 1.41974704 5.27086978 3.13578366 7.6875 5.75 C10.5855671 8.82716114 13.00842511 10.53437379 16.8125 12.3125 C20.2930365 14.472833 21.31684835 16.41523025 22.234375 20.28125 C24.42085242 32.22513282 26.08012147 43.5221318 19 54 C14.51709509 59.05629973 10.04720269 61.57672522 3.2734375 62.28515625 C-3.99365947 62.64391167 -9.31383224 61.69726902 -15 57 C-21.95536315 49.45768638 -22.35881813 42.98486766 -22.05810547 33.04736328 C-22.00294489 31.10376406 -21.98670199 29.15917483 -21.97265625 27.21484375 C-21.64102048 21.86794424 -21.30272651 18.33902539 -17.4765625 14.40625 C-15.40909442 12.88559338 -13.29235647 11.42976024 -11.1328125 10.04296875 C-6.82966338 7.23680044 -3.47511979 3.75108518 0 0 Z " fill="#FA5F5A" transform="translate(254,219)"/>
<path d="M0 0 C31.10909282 9.99935126 31.10909282 9.99935126 36.0625 19.25 C36.53558594 20.20648438 37.00867188 21.16296875 37.49609375 22.1484375 C39.80424634 26.52493461 42.85629205 30.20167006 46 34 C46.804375 35.010625 47.60875 36.02125 48.4375 37.0625 C49.2109375 38.0215625 49.2109375 38.0215625 50 39 C44.82751242 38.4306254 40.87986664 36.77064938 36.3125 34.4375 C35.61205566 34.08324951 34.91161133 33.72899902 34.18994141 33.36401367 C28.0031256 30.15296414 22.45507243 26.33947703 17 22 C15.4221875 20.824375 15.4221875 20.824375 13.8125 19.625 C8.36261895 14.53844436 3.57629198 8.55468994 0 2 C0 1.34 0 0.68 0 0 Z " fill="#0297E0" transform="translate(167,226)"/>
<path d="M0 0 C-6.05748759 16.68721342 -23.16682998 28.44619651 -38.625 35.7734375 C-44.21064956 38.20373214 -44.21064956 38.20373214 -47 39 C-47.66 38.67 -48.32 38.34 -49 38 C-48.43152344 37.41734375 -47.86304688 36.8346875 -47.27734375 36.234375 C-41.0979171 29.67324753 -35.32386798 22.45256742 -32.23046875 13.86328125 C-30.29843551 10.93763092 -27.36324212 9.91935437 -24.25 8.5625 C-23.25867065 8.11571899 -23.25867065 8.11571899 -22.24731445 7.65991211 C-4.94006469 0 -4.94006469 0 0 0 Z " fill="#0297E0" transform="translate(343,226)"/>
<path d="M0 0 C5.22723146 3.12263452 9.70173582 7.18877231 11.7734375 13.05859375 C12.30843348 19.15754789 12.30843348 19.15754789 10.5859375 22.05859375 C8.7734375 23.05859375 8.7734375 23.05859375 6.2109375 22.87109375 C3.7734375 22.05859375 3.7734375 22.05859375 1.7734375 20.05859375 C1.4846875 18.92421875 1.1959375 17.78984375 0.8984375 16.62109375 C0.04363401 13.11859164 0.04363401 13.11859164 -1.9140625 11.05859375 C-5.33424258 9.57959696 -7.67110729 10.15356879 -11.2265625 11.05859375 C-14.87858796 13.32536817 -15.14865766 17.10627602 -16.2265625 21.05859375 C-16.8865625 21.71859375 -17.5465625 22.37859375 -18.2265625 23.05859375 C-21.2890625 22.80859375 -21.2890625 22.80859375 -24.2265625 22.05859375 C-25.85515503 18.80140869 -25.76989906 15.57793285 -25.2265625 12.05859375 C-22.88261575 6.46141056 -19.58588855 2.97127095 -14.2265625 0.05859375 C-9.45849144 -1.53076327 -4.72202224 -1.99650414 0 0 Z " fill="#080603" transform="translate(317.2265625,93.94140625)"/>
<path d="M0 0 C5.22723146 3.12263452 9.70173582 7.18877231 11.7734375 13.05859375 C12.3046348 19.11424299 12.3046348 19.11424299 10.6484375 22.05859375 C7.84207512 23.55532036 5.77184468 22.79153773 2.7734375 22.05859375 C2.60328125 21.44371094 2.433125 20.82882813 2.2578125 20.1953125 C0.80505994 15.22955998 0.80505994 15.22955998 -2.0390625 10.99609375 C-5.02398653 9.71684059 -7.01108601 9.58967009 -10.2265625 10.05859375 C-14.3694527 12.93560083 -15.00090847 16.33107107 -16.2265625 21.05859375 C-16.8865625 21.71859375 -17.5465625 22.37859375 -18.2265625 23.05859375 C-23.79474432 22.49041193 -23.79474432 22.49041193 -25.2265625 21.05859375 C-26.14553892 15.05899058 -25.19886396 10.73713163 -21.7265625 5.78515625 C-16.30689229 -0.45310998 -7.78954169 -3.29347289 0 0 Z " fill="#080603" transform="translate(207.2265625,93.94140625)"/>
<path d="M0 0 C11.22 0 22.44 0 34 0 C34 8.15789474 34 8.15789474 30 13 C24.86179654 17.86294256 21.54552789 19.36812554 14.53515625 19.27734375 C9.44745863 18.72075433 6.74375343 15.71069772 3.1875 12.3125 C1 9 1 9 0 0 Z " fill="#7B3C19" transform="translate(238,159)"/>
<path d="M0 0 C4.29 0.33 8.58 0.66 13 1 C11.21424412 5.4643897 10.01457901 7.41972913 6.875 10.8125 C6.15054687 11.60269531 5.42609375 12.39289063 4.6796875 13.20703125 C4.12539063 13.79871094 3.57109375 14.39039063 3 15 C-0.12340498 10.31489253 0.35966774 5.57484993 0 0 Z " fill="#4C5055" transform="translate(286,240)"/>
<path d="M0 0 C3.63 0 7.26 0 11 0 C10.67 4.29 10.34 8.58 10 13 C9.34 13 8.68 13 8 13 C6.55473264 11.26451831 5.1912778 9.46024037 3.875 7.625 C3.15054688 6.62726563 2.42609375 5.62953125 1.6796875 4.6015625 C0 2 0 2 0 0 Z " fill="#4C5055" transform="translate(212,241)"/>
</svg>
